# xmcd CD database file
#
# Track frame offsets:
#	150
#	14749
#	33537
#	50326
#
# Disc length: 885 seconds
#
# Revision: 0
# Processed by: cddbd v1.5.1PL2 Copyright (c) Steve Scherf et al.
# Submitted via: CDex 1.51
#
DISCID=2f037304
DTITLE=大江戸宅急便 - i-zu 3.5
DYEAR=2003
DGENRE=Game
TTITLE0=デストロイ！
TTITLE1=Color of Kokabiel
TTITLE2=Sky High!!
TTITLE3=魔城ガッデムのテーマ
EXTD=YEAR: 2003
EXTT0=
EXTT1=
EXTT2=
EXTT3=
PLAYORDER=
